<svg id="Component_250_1" data-name="Component 250 – 1" xmlns="http://www.w3.org/2000/svg" width="3059.423" height="934.265" viewBox="0 0 3059.423 934.265">
  <g id="Component_249_1" data-name="Component 249 – 1" transform="translate(910.423 301.155)">
    <g id="Component_247_1" data-name="Component 247 – 1">
      <g id="Component_241_1" data-name="Component 241 – 1">
        <path id="rgba_0_0_0_0.52_" data-name="rgba(0,0,0,0.52)" d="M38.5,155,39,524.5H38Z" transform="translate(-38 -155)" fill="rgba(0,0,0,0.52)"/>
        <path id="rgba_0_0_0_0.52_2" data-name="rgba(0,0,0,0.52)" d="M1696.5,259l-1,2Z" transform="translate(-38 -155)" fill="rgba(0,0,0,0.52)"/>
        <path id="rgba_0_0_0_0.52_3" data-name="rgba(0,0,0,0.52)" d="M113.5,261l-1,2Z" transform="translate(-38 -155)" fill="rgba(0,0,0,0.52)"/>
        <path id="rgba_0_0_0_0.52_4" data-name="rgba(0,0,0,0.52)" d="M1693.5,261l-1,2Z" transform="translate(-38 -155)" fill="rgba(0,0,0,0.52)"/>
        <path id="rgba_0_0_0_0.52_5" data-name="rgba(0,0,0,0.52)" d="M1051.5,262l-1,2Z" transform="translate(-38 -155)" fill="rgba(0,0,0,0.52)"/>
        <path id="rgba_0_0_0_0.52_6" data-name="rgba(0,0,0,0.52)" d="M1048.5,264l-1,2Z" transform="translate(-38 -155)" fill="rgba(0,0,0,0.52)"/>
        <path id="rgba_0_0_0_0.52_7" data-name="rgba(0,0,0,0.52)" d="M107.5,265l-1,2Z" transform="translate(-38 -155)" fill="rgba(0,0,0,0.52)"/>
        <path id="rgba_0_0_0_0.52_8" data-name="rgba(0,0,0,0.52)" d="M240.5,265l1,2Z" transform="translate(-38 -155)" fill="rgba(0,0,0,0.52)"/>
        <path id="rgba_0_0_0_0.52_9" data-name="rgba(0,0,0,0.52)" d="M1045.5,266l-1,2Z" transform="translate(-38 -155)" fill="rgba(0,0,0,0.52)"/>
        <path id="rgba_0_0_0_0.52_10" data-name="rgba(0,0,0,0.52)" d="M1686.5,266l-2,3Z" transform="translate(-38 -155)" fill="rgba(0,0,0,0.52)"/>
        <path id="rgba_0_0_0_0.52_11" data-name="rgba(0,0,0,0.52)" d="M1182.5,267l1,2Z" transform="translate(-38 -155)" fill="rgba(0,0,0,0.52)"/>
        <path id="rgba_0_0_0_0.52_12" data-name="rgba(0,0,0,0.52)" d="M103.5,268l-1,2Z" transform="translate(-38 -155)" fill="rgba(0,0,0,0.52)"/>
        <path id="rgba_0_0_0_0.52_13" data-name="rgba(0,0,0,0.52)" d="M244.5,268l2,3Z" transform="translate(-38 -155)" fill="rgba(0,0,0,0.52)"/>
        <path id="rgba_0_0_0_0.52_14" data-name="rgba(0,0,0,0.52)" d="M715.5,268l-1,2Z" transform="translate(-38 -155)" fill="rgba(0,0,0,0.52)"/>
        <path id="rgba_0_0_0_0.52_15" data-name="rgba(0,0,0,0.52)" d="M861.5,268l1,2Z" transform="translate(-38 -155)" fill="rgba(0,0,0,0.52)"/>
        <path id="rgba_0_0_0_0.52_16" data-name="rgba(0,0,0,0.52)" d="M1339.5,269l-1,2Z" transform="translate(-38 -155)" fill="rgba(0,0,0,0.52)"/>
        <path id="rgba_0_0_0_0.52_17" data-name="rgba(0,0,0,0.52)" d="M1499.5,269l1,2Z" transform="translate(-38 -155)" fill="rgba(0,0,0,0.52)"/>
        <path id="rgba_0_0_0_0.52_18" data-name="rgba(0,0,0,0.52)" d="M864.5,270l1,2Z" transform="translate(-38 -155)" fill="rgba(0,0,0,0.52)"/>
        <path id="rgba_0_0_0_0.52_19" data-name="rgba(0,0,0,0.52)" d="M1040.5,270l-3,4Z" transform="translate(-38 -155)" fill="rgba(0,0,0,0.52)"/>
        <path id="rgba_0_0_0_0.52_20" data-name="rgba(0,0,0,0.52)" d="M711.5,271l-2,3Z" transform="translate(-38 -155)" fill="rgba(0,0,0,0.52)"/>
        <path id="rgba_0_0_0_0.52_21" data-name="rgba(0,0,0,0.52)" d="M1187.5,271l9,10Z" transform="translate(-38 -155)" fill="rgba(0,0,0,0.52)"/>
        <path id="rgba_0_0_0_0.52_22" data-name="rgba(0,0,0,0.52)" d="M1336.5,271l-1,2Z" transform="translate(-38 -155)" fill="rgba(0,0,0,0.52)"/>
        <path id="rgba_0_0_0_0.52_23" data-name="rgba(0,0,0,0.52)" d="M1502.5,271l1,2Z" transform="translate(-38 -155)" fill="rgba(0,0,0,0.52)"/>
        <path id="rgba_0_0_0_0.52_24" data-name="rgba(0,0,0,0.52)" d="M1839.5,271l-1,2Z" transform="translate(-38 -155)" fill="rgba(0,0,0,0.52)"/>
        <path id="rgba_0_0_0_0.52_25" data-name="rgba(0,0,0,0.52)" d="M868.5,273l2,3Z" transform="translate(-38 -155)" fill="rgba(0,0,0,0.52)"/>
        <path id="rgba_0_0_0_0.52_26" data-name="rgba(0,0,0,0.52)" d="M1996.5,273l3,4Z" transform="translate(-38 -155)" fill="rgba(0,0,0,0.52)"/>
        <path id="rgba_0_0_0_0.52_27" data-name="rgba(0,0,0,0.52)" d="M96.5,274l-2,3Z" transform="translate(-38 -155)" fill="rgba(0,0,0,0.52)"/>
        <path id="rgba_0_0_0_0.52_28" data-name="rgba(0,0,0,0.52)" d="M1331.5,275l-1,2Z" transform="translate(-38 -155)" fill="rgba(0,0,0,0.52)"/>
        <path id="rgba_0_0_0_0.52_29" data-name="rgba(0,0,0,0.52)" d="M1507.5,275l1,2Z" transform="translate(-38 -155)" fill="rgba(0,0,0,0.52)"/>
        <path id="rgba_0_0_0_0.52_30" data-name="rgba(0,0,0,0.52)" d="M1834.5,275l-2,3Z" transform="translate(-38 -155)" fill="rgba(0,0,0,0.52)"/>
        <path id="rgba_0_0_0_0.52_31" data-name="rgba(0,0,0,0.52)" d="M1676.5,276l-3,4Z" transform="translate(-38 -155)" fill="rgba(0,0,0,0.52)"/>
        <path id="rgba_0_0_0_0.52_32" data-name="rgba(0,0,0,0.52)" d="M1033.5,277l-3,4Z" transform="translate(-38 -155)" fill="rgba(0,0,0,0.52)"/>
        <path id="rgba_0_0_0_0.52_33" data-name="rgba(0,0,0,0.52)" d="M1327.5,278l-2,3Z" transform="translate(-38 -155)" fill="rgba(0,0,0,0.52)"/>
        <path id="rgba_0_0_0_0.52_34" data-name="rgba(0,0,0,0.52)" d="M702.5,279l-3,4Z" transform="translate(-38 -155)" fill="rgba(0,0,0,0.52)"/>
        <path id="rgba_0_0_0_0.52_35" data-name="rgba(0,0,0,0.52)" d="M1512.5,279l2,3Z" transform="translate(-38 -155)" fill="rgba(0,0,0,0.52)"/>
        <path id="rgba_0_0_0_0.52_36" data-name="rgba(0,0,0,0.52)" d="M90.5,281l-1,2Z" transform="translate(-38 -155)" fill="rgba(0,0,0,0.52)"/>
        <path id="rgba_0_0_0_0.52_37" data-name="rgba(0,0,0,0.52)" d="M258.5,282l1,2Z" transform="translate(-38 -155)" fill="rgba(0,0,0,0.52)"/>
        <path id="rgba_0_0_0_0.52_38" data-name="rgba(0,0,0,0.52)" d="M1671.5,282l-1,2Z" transform="translate(-38 -155)" fill="rgba(0,0,0,0.52)"/>
        <path id="rgba_0_0_0_0.52_39" data-name="rgba(0,0,0,0.52)" d="M1028.5,283l-1,2Z" transform="translate(-38 -155)" fill="rgba(0,0,0,0.52)"/>
        <path id="rgba_0_0_0_0.52_40" data-name="rgba(0,0,0,0.52)" d="M2006.5,283l3,4Z" transform="translate(-38 -155)" fill="rgba(0,0,0,0.52)"/>
        <path id="rgba_0_0_0_0.52_41" data-name="rgba(0,0,0,0.52)" d="M1199.5,284l1,2Z" transform="translate(-38 -155)" fill="rgba(0,0,0,0.52)"/>
        <path id="rgba_0_0_0_0.52_42" data-name="rgba(0,0,0,0.52)" d="M261.5,286l1,2Z" transform="translate(-38 -155)" fill="rgba(0,0,0,0.52)"/>
        <path id="rgba_0_0_0_0.52_43" data-name="rgba(0,0,0,0.52)" d="M1520.5,287l4,5Z" transform="translate(-38 -155)" fill="rgba(0,0,0,0.52)"/>
        <path id="rgba_0_0_0_0.52_44" data-name="rgba(0,0,0,0.52)" d="M1822.5,287l-3,4Z" transform="translate(-38 -155)" fill="rgba(0,0,0,0.52)"/>
        <path id="rgba_0_0_0_0.52_45" data-name="rgba(0,0,0,0.52)" d="M694.5,288l-2,3Z" transform="translate(-38 -155)" fill="rgba(0,0,0,0.52)"/>
        <path id="rgba_0_0_0_0.52_46" data-name="rgba(0,0,0,0.52)" d="M884.5,289l2,3Z" transform="translate(-38 -155)" fill="rgba(0,0,0,0.52)"/>
        <path id="rgba_0_0_0_0.52_47" data-name="rgba(0,0,0,0.52)" d="M1316.5,289l-3,4Z" transform="translate(-38 -155)" fill="rgba(0,0,0,0.52)"/>
        <path id="rgba_0_0_0_0.52_48" data-name="rgba(0,0,0,0.52)" d="M2011.5,289l1,2Z" transform="translate(-38 -155)" fill="rgba(0,0,0,0.52)"/>
        <path id="rgba_0_0_0_0.52_49" data-name="rgba(0,0,0,0.52)" d="M2014.5,293l1,2Z" transform="translate(-38 -155)" fill="rgba(0,0,0,0.52)"/>
        <path id="rgba_0_0_0_0.52_50" data-name="rgba(0,0,0,0.52)" d="M1816.5,294l-1,2Z" transform="translate(-38 -155)" fill="rgba(0,0,0,0.52)"/>
        <path id="rgba_0_0_0_0.52_51" data-name="rgba(0,0,0,0.52)" d="M889.5,295l1,2Z" transform="translate(-38 -155)" fill="rgba(0,0,0,0.52)"/>
        <path id="rgba_0_0_0_0.52_52" data-name="rgba(0,0,0,0.52)" d="M1527.5,295l1,2Z" transform="translate(-38 -155)" fill="rgba(0,0,0,0.52)"/>
        <path id="rgba_0_0_0_0.52_53" data-name="rgba(0,0,0,0.52)" d="M205.5,296l1,2Z" transform="translate(-38 -155)" fill="rgba(0,0,0,0.52)"/>
        <path id="rgba_0_0_0_0.52_54" data-name="rgba(0,0,0,0.52)" d="M1058.5,296l-1,2Z" transform="translate(-38 -155)" fill="rgba(0,0,0,0.52)"/>
        <path id="rgba_0_0_0_0.52_55" data-name="rgba(0,0,0,0.52)" d="M1310.5,296l-1,2Z" transform="translate(-38 -155)" fill="rgba(0,0,0,0.52)"/>
        <path id="rgba_0_0_0_0.52_56" data-name="rgba(0,0,0,0.52)" d="M2016.5,296l1,2Z" transform="translate(-38 -155)" fill="rgba(0,0,0,0.52)"/>
        <path id="rgba_0_0_0_0.52_57" data-name="rgba(0,0,0,0.52)" d="M117.5,297l-1,2Z" transform="translate(-38 -155)" fill="rgba(0,0,0,0.52)"/>
        <path id="rgba_0_0_0_0.52_58" data-name="rgba(0,0,0,0.52)" d="M1146.5,297l1,2Z" transform="translate(-38 -155)" fill="rgba(0,0,0,0.52)"/>
        <path id="rgba_0_0_0_0.52_59" data-name="rgba(0,0,0,0.52)" d="M208.5,298l1,2Z" transform="translate(-38 -155)" fill="rgba(0,0,0,0.52)"/>
        <path id="rgba_0_0_0_0.52_60" data-name="rgba(0,0,0,0.52)" d="M826.5,298l1,2Z" transform="translate(-38 -155)" fill="rgba(0,0,0,0.52)"/>
        <path id="rgba_0_0_0_0.52_61" data-name="rgba(0,0,0,0.52)" d="M1055.5,298l-1,2Z" transform="translate(-38 -155)" fill="rgba(0,0,0,0.52)"/>
        <path id="rgba_0_0_0_0.52_62" data-name="rgba(0,0,0,0.52)" d="M1813.5,298l-1,2Z" transform="translate(-38 -155)" fill="rgba(0,0,0,0.52)"/>
        <path id="rgba_0_0_0_0.52_63" data-name="rgba(0,0,0,0.52)" d="M113.5,300l-1,2Z" transform="translate(-38 -155)" fill="rgba(0,0,0,0.52)"/>
        <path id="rgba_0_0_0_0.52_64" data-name="rgba(0,0,0,0.52)" d="M829.5,300l1,2Z" transform="translate(-38 -155)" fill="rgba(0,0,0,0.52)"/>
        <path id="rgba_0_0_0_0.52_65" data-name="rgba(0,0,0,0.52)" d="M1150.5,300l1,2Z" transform="translate(-38 -155)" fill="rgba(0,0,0,0.52)"/>
        <path id="rgba_0_0_0_0.52_66" data-name="rgba(0,0,0,0.52)" d="M1307.5,300l-1,2Z" transform="translate(-38 -155)" fill="rgba(0,0,0,0.52)"/>
        <path id="rgba_0_0_0_0.52_67" data-name="rgba(0,0,0,0.52)" d="M212.5,301l8,9Z" transform="translate(-38 -155)" fill="rgba(0,0,0,0.52)"/>
        <path id="rgba_0_0_0_0.52_68" data-name="rgba(0,0,0,0.52)" d="M1051.5,301l-9,10Z" transform="translate(-38 -155)" fill="rgba(0,0,0,0.52)"/>
        <path id="rgba_0_0_0_0.52_69" data-name="rgba(0,0,0,0.52)" d="M1471.5,301l1,2Z" transform="translate(-38 -155)" fill="rgba(0,0,0,0.52)"/>
        <path id="rgba_0_0_0_0.52_70" data-name="rgba(0,0,0,0.52)" d="M725.5,302l-1,2Z" transform="translate(-38 -155)" fill="rgba(0,0,0,0.52)"/>
        <path id="rgba_0_0_0_0.52_71" data-name="rgba(0,0,0,0.52)" d="M832.5,302l1,2Z" transform="translate(-38 -155)" fill="rgba(0,0,0,0.52)"/>
        <path id="rgba_0_0_0_0.52_72" data-name="rgba(0,0,0,0.52)" d="M1363.5,303l-1,2Z" transform="translate(-38 -155)" fill="rgba(0,0,0,0.52)"/>
        <path id="rgba_0_0_0_0.52_73" data-name="rgba(0,0,0,0.52)" d="M1871.5,303l-1,2Z" transform="translate(-38 -155)" fill="rgba(0,0,0,0.52)"/>
        <path id="rgba_0_0_0_0.52_74" data-name="rgba(0,0,0,0.52)" d="M1475.5,304l1,2Z" transform="translate(-38 -155)" fill="rgba(0,0,0,0.52)"/>
        <path id="rgba_0_0_0_0.52_75" data-name="rgba(0,0,0,0.52)" d="M721.5,305l-1,2Z" transform="translate(-38 -155)" fill="rgba(0,0,0,0.52)"/>
        <path id="rgba_0_0_0_0.52_76" data-name="rgba(0,0,0,0.52)" d="M836.5,305l3,4Z" transform="translate(-38 -155)" fill="rgba(0,0,0,0.52)"/>
        <path id="rgba_0_0_0_0.52_77" data-name="rgba(0,0,0,0.52)" d="M1983.5,305l1,2Z" transform="translate(-38 -155)" fill="rgba(0,0,0,0.52)"/>
        <path id="rgba_0_0_0_0.52_78" data-name="rgba(0,0,0,0.52)" d="M1867.5,306l-4,5Z" transform="translate(-38 -155)" fill="rgba(0,0,0,0.52)"/>
        <path id="rgba_0_0_0_0.52_79" data-name="rgba(0,0,0,0.52)" d="M1358.5,307l-7,8Z" transform="translate(-38 -155)" fill="rgba(0,0,0,0.52)"/>
        <path id="rgba_0_0_0_0.52_80" data-name="rgba(0,0,0,0.52)" d="M1301.5,309l-1,2Z" transform="translate(-38 -155)" fill="rgba(0,0,0,0.52)"/>
        <path id="rgba_0_0_0_0.52_81" data-name="rgba(0,0,0,0.52)" d="M1160.5,310l2,3Z" transform="translate(-38 -155)" fill="rgba(0,0,0,0.52)"/>
        <path id="rgba_0_0_0_0.52_82" data-name="rgba(0,0,0,0.52)" d="M1685.5,310l-5,6Z" transform="translate(-38 -155)" fill="rgba(0,0,0,0.52)"/>
        <path id="rgba_0_0_0_0.52_83" data-name="rgba(0,0,0,0.52)" d="M102.5,311l-2,3Z" transform="translate(-38 -155)" fill="rgba(0,0,0,0.52)"/>
        <path id="rgba_0_0_0_0.52_84" data-name="rgba(0,0,0,0.52)" d="M1484.5,312l2,3Z" transform="translate(-38 -155)" fill="rgba(0,0,0,0.52)"/>
        <path id="rgba_0_0_0_0.52_85" data-name="rgba(0,0,0,0.52)" d="M1859.5,314l-2,3Z" transform="translate(-38 -155)" fill="rgba(0,0,0,0.52)"/>
        <path id="rgba_0_0_0_0.52_86" data-name="rgba(0,0,0,0.52)" d="M846.5,315l2,3Z" transform="translate(-38 -155)" fill="rgba(0,0,0,0.52)"/>
        <path id="rgba_0_0_0_0.52_87" data-name="rgba(0,0,0,0.52)" d="M97.5,318l-1,2Z" transform="translate(-38 -155)" fill="rgba(0,0,0,0.52)"/>
        <path id="rgba_0_0_0_0.52_88" data-name="rgba(0,0,0,0.52)" d="M1348.5,318l-1,2Z" transform="translate(-38 -155)" fill="rgba(0,0,0,0.52)"/>
        <path id="rgba_0_0_0_0.52_89" data-name="rgba(0,0,0,0.52)" d="M1489.5,318l1,2Z" transform="translate(-38 -155)" fill="rgba(0,0,0,0.52)"/>
        <path id="rgba_0_0_0_0.52_90" data-name="rgba(0,0,0,0.52)" d="M1678.5,318l-1,2Z" transform="translate(-38 -155)" fill="rgba(0,0,0,0.52)"/>
        <path id="rgba_0_0_0_0.52_91" data-name="rgba(0,0,0,0.52)" d="M1996.5,318l2,3Z" transform="translate(-38 -155)" fill="rgba(0,0,0,0.52)"/>
        <path id="rgba_0_0_0_0.52_92" data-name="rgba(0,0,0,0.52)" d="M707.5,319l-1,2Z" transform="translate(-38 -155)" fill="rgba(0,0,0,0.52)"/>
        <path id="rgba_0_0_0_0.52_93" data-name="rgba(0,0,0,0.52)" d="M1854.5,320l-1,2Z" transform="translate(-38 -155)" fill="rgba(0,0,0,0.52)"/>
        <path id="rgba_0_0_0_0.52_94" data-name="rgba(0,0,0,0.52)" d="M851.5,321l1,2Z" transform="translate(-38 -155)" fill="rgba(0,0,0,0.52)"/>
        <path id="rgba_0_0_0_0.52_95" data-name="rgba(0,0,0,0.52)" d="M1345.5,322l-1,2Z" transform="translate(-38 -155)" fill="rgba(0,0,0,0.52)"/>
        <path id="rgba_0_0_0_0.52_96" data-name="rgba(0,0,0,0.52)" d="M1492.5,322l1,2Z" transform="translate(-38 -155)" fill="rgba(0,0,0,0.52)"/>
        <path id="rgba_0_0_0_0.52_97" data-name="rgba(0,0,0,0.52)" d="M855.5,327l1,2Z" transform="translate(-38 -155)" fill="rgba(0,0,0,0.52)"/>
        <path id="rgba_0_0_0_0.52_98" data-name="rgba(0,0,0,0.52)" d="M2005.5,444l-1,2Z" transform="translate(-38 -155)" fill="rgba(0,0,0,0.52)"/>
        <path id="rgba_0_0_0_0.52_99" data-name="rgba(0,0,0,0.52)" d="M1495.5,448l-1,2Z" transform="translate(-38 -155)" fill="rgba(0,0,0,0.52)"/>
        <path id="rgba_0_0_0_0.52_100" data-name="rgba(0,0,0,0.52)" d="M1493.5,451l-1,2Z" transform="translate(-38 -155)" fill="rgba(0,0,0,0.52)"/>
        <path id="rgba_0_0_0_0.52_101" data-name="rgba(0,0,0,0.52)" d="M705.5,453l1,2Z" transform="translate(-38 -155)" fill="rgba(0,0,0,0.52)"/>
        <path id="rgba_0_0_0_0.52_102" data-name="rgba(0,0,0,0.52)" d="M851.5,453l-1,2Z" transform="translate(-38 -155)" fill="rgba(0,0,0,0.52)"/>
        <path id="rgba_0_0_0_0.52_103" data-name="rgba(0,0,0,0.52)" d="M1999.5,453l-1,2Z" transform="translate(-38 -155)" fill="rgba(0,0,0,0.52)"/>
        <path id="rgba_0_0_0_0.52_104" data-name="rgba(0,0,0,0.52)" d="M1854.5,454l1,2Z" transform="translate(-38 -155)" fill="rgba(0,0,0,0.52)"/>
        <path id="rgba_0_0_0_0.52_105" data-name="rgba(0,0,0,0.52)" d="M1490.5,455l-2,3Z" transform="translate(-38 -155)" fill="rgba(0,0,0,0.52)"/>
        <path id="rgba_0_0_0_0.52_106" data-name="rgba(0,0,0,0.52)" d="M1347.5,456l2,3Z" transform="translate(-38 -155)" fill="rgba(0,0,0,0.52)"/>
        <path id="rgba_0_0_0_0.52_107" data-name="rgba(0,0,0,0.52)" d="M708.5,457l3,4Z" transform="translate(-38 -155)" fill="rgba(0,0,0,0.52)"/>
        <path id="rgba_0_0_0_0.52_108" data-name="rgba(0,0,0,0.52)" d="M847.5,458l-3,4Z" transform="translate(-38 -155)" fill="rgba(0,0,0,0.52)"/>
        <path id="rgba_0_0_0_0.52_109" data-name="rgba(0,0,0,0.52)" d="M1995.5,458l-2,3Z" transform="translate(-38 -155)" fill="rgba(0,0,0,0.52)"/>
        <path id="rgba_0_0_0_0.52_110" data-name="rgba(0,0,0,0.52)" d="M1858.5,459l9,10Z" transform="translate(-38 -155)" fill="rgba(0,0,0,0.52)"/>
        <path id="rgba_0_0_0_0.52_111" data-name="rgba(0,0,0,0.52)" d="M1352.5,462l4,5Z" transform="translate(-38 -155)" fill="rgba(0,0,0,0.52)"/>
        <path id="rgba_0_0_0_0.52_112" data-name="rgba(0,0,0,0.52)" d="M1989.5,464l-3,4Z" transform="translate(-38 -155)" fill="rgba(0,0,0,0.52)"/>
        <path id="rgba_0_0_0_0.52_113" data-name="rgba(0,0,0,0.52)" d="M716.5,465l3,4Z" transform="translate(-38 -155)" fill="rgba(0,0,0,0.52)"/>
        <path id="rgba_0_0_0_0.52_114" data-name="rgba(0,0,0,0.52)" d="M839.5,466l-2,3Z" transform="translate(-38 -155)" fill="rgba(0,0,0,0.52)"/>
        <path id="rgba_0_0_0_0.52_115" data-name="rgba(0,0,0,0.52)" d="M1477.5,468l-2,3Z" transform="translate(-38 -155)" fill="rgba(0,0,0,0.52)"/>
        <path id="rgba_0_0_0_0.52_116" data-name="rgba(0,0,0,0.52)" d="M723.5,471l1,2Z" transform="translate(-38 -155)" fill="rgba(0,0,0,0.52)"/>
        <path id="rgba_0_0_0_0.52_117" data-name="rgba(0,0,0,0.52)" d="M1981.5,471l-1,2Z" transform="translate(-38 -155)" fill="rgba(0,0,0,0.52)"/>
        <path id="rgba_0_0_0_0.52_118" data-name="rgba(0,0,0,0.52)" d="M2174.5,471l6,7Z" transform="translate(-38 -155)" fill="rgba(0,0,0,0.52)"/>
        <path id="rgba_0_0_0_0.52_119" data-name="rgba(0,0,0,0.52)" d="M2137.5,472l-5,6Z" transform="translate(-38 -155)" fill="rgba(0,0,0,0.52)"/>
        <path id="rgba_0_0_0_0.52_120" data-name="rgba(0,0,0,0.52)" d="M830.5,473l-1,2Z" transform="translate(-38 -155)" fill="rgba(0,0,0,0.52)"/>
        <path id="rgba_0_0_0_0.52_121" data-name="rgba(0,0,0,0.52)" d="M1365.5,473l1,2Z" transform="translate(-38 -155)" fill="rgba(0,0,0,0.52)"/>
        <path id="rgba_0_0_0_0.52_122" data-name="rgba(0,0,0,0.52)" d="M1531.5,474l-1,2Z" transform="translate(-38 -155)" fill="rgba(0,0,0,0.52)"/>
        <path id="rgba_0_0_0_0.52_123" data-name="rgba(0,0,0,0.52)" d="M827.5,475l-1,2Z" transform="translate(-38 -155)" fill="rgba(0,0,0,0.52)"/>
        <path id="rgba_0_0_0_0.52_124" data-name="rgba(0,0,0,0.52)" d="M1975.5,475l-1,2Z" transform="translate(-38 -155)" fill="rgba(0,0,0,0.52)"/>
        <path id="rgba_0_0_0_0.52_125" data-name="rgba(0,0,0,0.52)" d="M1307.5,476l1,2Z" transform="translate(-38 -155)" fill="rgba(0,0,0,0.52)"/>
        <path id="rgba_0_0_0_0.52_126" data-name="rgba(0,0,0,0.52)" d="M1528.5,478l-1,2Z" transform="translate(-38 -155)" fill="rgba(0,0,0,0.52)"/>
        <path id="rgba_0_0_0_0.52_127" data-name="rgba(0,0,0,0.52)" d="M688.5,479l1,2Z" transform="translate(-38 -155)" fill="rgba(0,0,0,0.52)"/>
        <path id="rgba_0_0_0_0.52_128" data-name="rgba(0,0,0,0.52)" d="M889.5,479l-1,2Z" transform="translate(-38 -155)" fill="rgba(0,0,0,0.52)"/>
        <path id="rgba_0_0_0_0.52_129" data-name="rgba(0,0,0,0.52)" d="M1310.5,480l1,2Z" transform="translate(-38 -155)" fill="rgba(0,0,0,0.52)"/>
        <path id="rgba_0_0_0_0.52_130" data-name="rgba(0,0,0,0.52)" d="M1816.5,480l2,3Z" transform="translate(-38 -155)" fill="rgba(0,0,0,0.52)"/>
        <path id="rgba_0_0_0_0.52_131" data-name="rgba(0,0,0,0.52)" d="M691.5,483l1,2Z" transform="translate(-38 -155)" fill="rgba(0,0,0,0.52)"/>
        <path id="rgba_0_0_0_0.52_132" data-name="rgba(0,0,0,0.52)" d="M2013.5,483l-1,2Z" transform="translate(-38 -155)" fill="rgba(0,0,0,0.52)"/>
        <path id="rgba_0_0_0_0.52_133" data-name="rgba(0,0,0,0.52)" d="M885.5,484l-2,3Z" transform="translate(-38 -155)" fill="rgba(0,0,0,0.52)"/>
        <path id="rgba_0_0_0_0.52_134" data-name="rgba(0,0,0,0.52)" d="M1523.5,484l-9,10Z" transform="translate(-38 -155)" fill="rgba(0,0,0,0.52)"/>
        <path id="rgba_0_0_0_0.52_135" data-name="rgba(0,0,0,0.52)" d="M1314.5,485l10,11Z" transform="translate(-38 -155)" fill="rgba(0,0,0,0.52)"/>
        <path id="rgba_0_0_0_0.52_136" data-name="rgba(0,0,0,0.52)" d="M1820.5,485l2,3Z" transform="translate(-38 -155)" fill="rgba(0,0,0,0.52)"/>
        <path id="rgba_0_0_0_0.52_137" data-name="rgba(0,0,0,0.52)" d="M695.5,488l4,5Z" transform="translate(-38 -155)" fill="rgba(0,0,0,0.52)"/>
        <path id="rgba_0_0_0_0.52_138" data-name="rgba(0,0,0,0.52)" d="M2009.5,488l-1,2Z" transform="translate(-38 -155)" fill="rgba(0,0,0,0.52)"/>
        <path id="rgba_0_0_0_0.52_139" data-name="rgba(0,0,0,0.52)" d="M704.5,497l3,4Z" transform="translate(-38 -155)" fill="rgba(0,0,0,0.52)"/>
        <path id="rgba_0_0_0_0.52_140" data-name="rgba(0,0,0,0.52)" d="M1509.5,497l-2,3Z" transform="translate(-38 -155)" fill="rgba(0,0,0,0.52)"/>
        <path id="rgba_0_0_0_0.52_141" data-name="rgba(0,0,0,0.52)" d="M1833.5,498l2,3Z" transform="translate(-38 -155)" fill="rgba(0,0,0,0.52)"/>
        <path id="rgba_0_0_0_0.52_142" data-name="rgba(0,0,0,0.52)" d="M870.5,499l-1,2Z" transform="translate(-38 -155)" fill="rgba(0,0,0,0.52)"/>
        <path id="rgba_0_0_0_0.52_143" data-name="rgba(0,0,0,0.52)" d="M1329.5,499l1,2Z" transform="translate(-38 -155)" fill="rgba(0,0,0,0.52)"/>
        <path id="rgba_0_0_0_0.52_144" data-name="rgba(0,0,0,0.52)" d="M1504.5,501l-1,2Z" transform="translate(-38 -155)" fill="rgba(0,0,0,0.52)"/>
        <path id="rgba_0_0_0_0.52_145" data-name="rgba(0,0,0,0.52)" d="M1996.5,501l-2,3Z" transform="translate(-38 -155)" fill="rgba(0,0,0,0.52)"/>
        <path id="rgba_0_0_0_0.52_146" data-name="rgba(0,0,0,0.52)" d="M711.5,503l1,2Z" transform="translate(-38 -155)" fill="rgba(0,0,0,0.52)"/>
        <path id="rgba_0_0_0_0.52_147" data-name="rgba(0,0,0,0.52)" d="M865.5,503l-1,2Z" transform="translate(-38 -155)" fill="rgba(0,0,0,0.52)"/>
        <path id="rgba_0_0_0_0.52_148" data-name="rgba(0,0,0,0.52)" d="M1334.5,503l1,2Z" transform="translate(-38 -155)" fill="rgba(0,0,0,0.52)"/>
        <path id="rgba_0_0_0_0.52_149" data-name="rgba(0,0,0,0.52)" d="M1839.5,503l1,2Z" transform="translate(-38 -155)" fill="rgba(0,0,0,0.52)"/>
        <path id="rgba_0_0_0_0.52_150" data-name="rgba(0,0,0,0.52)" d="M1337.5,505l1,2Z" transform="translate(-38 -155)" fill="rgba(0,0,0,0.52)"/>
        <path id="rgba_0_0_0_0.52_151" data-name="rgba(0,0,0,0.52)" d="M1991.5,505l-1,2Z" transform="translate(-38 -155)" fill="rgba(0,0,0,0.52)"/>
        <path id="rgba_0_0_0_0.52_152" data-name="rgba(0,0,0,0.52)" d="M715.5,506l1,2Z" transform="translate(-38 -155)" fill="rgba(0,0,0,0.52)"/>
        <path id="rgba_0_0_0_0.52_153" data-name="rgba(0,0,0,0.52)" d="M861.5,506l-1,2Z" transform="translate(-38 -155)" fill="rgba(0,0,0,0.52)"/>
        <path id="rgba_0_0_0_0.52_154" data-name="rgba(0,0,0,0.52)" d="M1343.5,509l1,2Z" transform="translate(-38 -155)" fill="rgba(0,0,0,0.52)"/>
        <path id="rgba_0_0_0_0.52_155" data-name="rgba(0,0,0,0.52)" d="M721.5,510l1,2Z" transform="translate(-38 -155)" fill="rgba(0,0,0,0.52)"/>
        <path id="rgba_0_0_0_0.52_156" data-name="rgba(0,0,0,0.52)" d="M2132.5,516l5,6Z" transform="translate(-38 -155)" fill="rgba(0,0,0,0.52)"/>
        <path id="rgba_0_0_0_0.52_157" data-name="rgba(0,0,0,0.52)" d="M2180.5,516l-5,6Z" transform="translate(-38 -155)" fill="rgba(0,0,0,0.52)"/>
        <path id="rgba_0_0_0_0.9_" data-name="rgba(0,0,0,0.9)" d="M109.5,264l-1,2Z" transform="translate(-38 -155)" fill="rgba(0,0,0,0.9)"/>
        <path id="rgba_0_0_0_0.9_2" data-name="rgba(0,0,0,0.9)" d="M856.5,265l1,2Z" transform="translate(-38 -155)" fill="rgba(0,0,0,0.9)"/>
        <path id="rgba_0_0_0_0.9_3" data-name="rgba(0,0,0,0.9)" d="M1179.5,265l1,2Z" transform="translate(-38 -155)" fill="rgba(0,0,0,0.9)"/>
        <path id="rgba_0_0_0_0.9_4" data-name="rgba(0,0,0,0.9)" d="M1688.5,265l-1,2Z" transform="translate(-38 -155)" fill="rgba(0,0,0,0.9)"/>
        <path id="rgba_0_0_0_0.9_5" data-name="rgba(0,0,0,0.9)" d="M242.5,267l1,2Z" transform="translate(-38 -155)" fill="rgba(0,0,0,0.9)"/>
        <path id="rgba_0_0_0_0.9_6" data-name="rgba(0,0,0,0.9)" d="M717.5,267l-1,2Z" transform="translate(-38 -155)" fill="rgba(0,0,0,0.9)"/>
        <path id="rgba_0_0_0_0.9_7" data-name="rgba(0,0,0,0.9)" d="M1043.5,268l-1,2Z" transform="translate(-38 -155)" fill="rgba(0,0,0,0.9)"/>
        <path id="rgba_0_0_0_0.9_8" data-name="rgba(0,0,0,0.9)" d="M1341.5,268l-1,2Z" transform="translate(-38 -155)" fill="rgba(0,0,0,0.9)"/>
        <path id="rgba_0_0_0_0.9_9" data-name="rgba(0,0,0,0.9)" d="M1497.5,268l1,2Z" transform="translate(-38 -155)" fill="rgba(0,0,0,0.9)"/>
        <path id="rgba_0_0_0_0.9_10" data-name="rgba(0,0,0,0.9)" d="M1989.5,268l1,2Z" transform="translate(-38 -155)" fill="rgba(0,0,0,0.9)"/>
        <path id="rgba_0_0_0_0.9_11" data-name="rgba(0,0,0,0.9)" d="M1184.5,269l1,2Z" transform="translate(-38 -155)" fill="rgba(0,0,0,0.9)"/>
        <path id="rgba_0_0_0_0.9_12" data-name="rgba(0,0,0,0.9)" d="M1683.5,269l-6,7Z" transform="translate(-38 -155)" fill="rgba(0,0,0,0.9)"/>
        <path id="rgba_0_0_0_0.9_13" data-name="rgba(0,0,0,0.9)" d="M101.5,270l-2,3Z" transform="translate(-38 -155)" fill="rgba(0,0,0,0.9)"/>
        <path id="rgba_0_0_0_0.9_14" data-name="rgba(0,0,0,0.9)" d="M247.5,271l3,4Z" transform="translate(-38 -155)" fill="rgba(0,0,0,0.9)"/>
        <path id="rgba_0_0_0_0.9_15" data-name="rgba(0,0,0,0.9)" d="M1993.5,271l1,2Z" transform="translate(-38 -155)" fill="rgba(0,0,0,0.9)"/>
        <path id="rgba_0_0_0_0.9_16" data-name="rgba(0,0,0,0.9)" d="M866.5,272l1,2Z" transform="translate(-38 -155)" fill="rgba(0,0,0,0.9)"/>
        <path id="rgba_0_0_0_0.9_17" data-name="rgba(0,0,0,0.9)" d="M1334.5,273l-1,2Z" transform="translate(-38 -155)" fill="rgba(0,0,0,0.9)"/>
        <path id="rgba_0_0_0_0.9_18" data-name="rgba(0,0,0,0.9)" d="M1504.5,273l1,2Z" transform="translate(-38 -155)" fill="rgba(0,0,0,0.9)"/>
        <path id="rgba_0_0_0_0.9_19" data-name="rgba(0,0,0,0.9)" d="M1837.5,273l-1,2Z" transform="translate(-38 -155)" fill="rgba(0,0,0,0.9)"/>
        <path id="rgba_0_0_0_0.9_20" data-name="rgba(0,0,0,0.9)" d="M708.5,274l-3,4Z" transform="translate(-38 -155)" fill="rgba(0,0,0,0.9)"/>
        <path id="rgba_0_0_0_0.9_21" data-name="rgba(0,0,0,0.9)" d="M1036.5,274l-2,3Z" transform="translate(-38 -155)" fill="rgba(0,0,0,0.9)"/>
        <path id="rgba_0_0_0_0.9_22" data-name="rgba(0,0,0,0.9)" d="M871.5,276l3,4Z" transform="translate(-38 -155)" fill="rgba(0,0,0,0.9)"/>
        <path id="rgba_0_0_0_0.9_23" data-name="rgba(0,0,0,0.9)" d="M1329.5,277l-1,2Z" transform="translate(-38 -155)" fill="rgba(0,0,0,0.9)"/>
        <path id="rgba_0_0_0_0.9_24" data-name="rgba(0,0,0,0.9)" d="M1509.5,277l1,2Z" transform="translate(-38 -155)" fill="rgba(0,0,0,0.9)"/>
        <path id="rgba_0_0_0_0.9_25" data-name="rgba(0,0,0,0.9)" d="M2000.5,277l5,6Z" transform="translate(-38 -155)" fill="rgba(0,0,0,0.9)"/>
        <path id="rgba_0_0_0_0.9_26" data-name="rgba(0,0,0,0.9)" d="M93.5,278l-2,3Z" transform="translate(-38 -155)" fill="rgba(0,0,0,0.9)"/>
        <path id="rgba_0_0_0_0.9_27" data-name="rgba(0,0,0,0.9)" d="M254.5,278l3,4Z" transform="translate(-38 -155)" fill="rgba(0,0,0,0.9)"/>
        <path id="rgba_0_0_0_0.9_28" data-name="rgba(0,0,0,0.9)" d="M1831.5,278l-8,9Z" transform="translate(-38 -155)" fill="rgba(0,0,0,0.9)"/>
        <path id="rgba_0_0_0_0.9_29" data-name="rgba(0,0,0,0.9)" d="M1324.5,281l-7,8Z" transform="translate(-38 -155)" fill="rgba(0,0,0,0.9)"/>
        <path id="rgba_0_0_0_0.9_30" data-name="rgba(0,0,0,0.9)" d="M1197.5,282l1,2Z" transform="translate(-38 -155)" fill="rgba(0,0,0,0.9)"/>
        <path id="rgba_0_0_0_0.9_31" data-name="rgba(0,0,0,0.9)" d="M1515.5,282l4,5Z" transform="translate(-38 -155)" fill="rgba(0,0,0,0.9)"/>
        <path id="rgba_0_0_0_0.9_32" data-name="rgba(0,0,0,0.9)" d="M88.5,284l-1,2Z" transform="translate(-38 -155)" fill="rgba(0,0,0,0.9)"/>
        <path id="rgba_0_0_0_0.9_33" data-name="rgba(0,0,0,0.9)" d="M698.5,284l-3,4Z" transform="translate(-38 -155)" fill="rgba(0,0,0,0.9)"/>
        <path id="rgba_0_0_0_0.9_34" data-name="rgba(0,0,0,0.9)" d="M880.5,285l3,4Z" transform="translate(-38 -155)" fill="rgba(0,0,0,0.9)"/>
        <path id="rgba_0_0_0_0.9_35" data-name="rgba(0,0,0,0.9)" d="M86.5,287l-1,2Z" transform="translate(-38 -155)" fill="rgba(0,0,0,0.9)"/>
        <path id="rgba_0_0_0_0.9_36" data-name="rgba(0,0,0,0.9)" d="M2009.5,287l1,2Z" transform="translate(-38 -155)" fill="rgba(0,0,0,0.9)"/>
        <path id="rgba_0_0_0_0.9_37" data-name="rgba(0,0,0,0.9)" d="M1024.5,289l-1,2Z" transform="translate(-38 -155)" fill="rgba(0,0,0,0.9)"/>
        <path id="rgba_0_0_0_0.9_38" data-name="rgba(0,0,0,0.9)" d="M692.5,291l-1,2Z" transform="translate(-38 -155)" fill="rgba(0,0,0,0.9)"/>
        <path id="rgba_0_0_0_0.9_39" data-name="rgba(0,0,0,0.9)" d="M1818.5,292l-1,2Z" transform="translate(-38 -155)" fill="rgba(0,0,0,0.9)"/>
        <path id="rgba_0_0_0_0.9_40" data-name="rgba(0,0,0,0.9)" d="M887.5,293l1,2Z" transform="translate(-38 -155)" fill="rgba(0,0,0,0.9)"/>
        <path id="rgba_0_0_0_0.9_41" data-name="rgba(0,0,0,0.9)" d="M1525.5,293l1,2Z" transform="translate(-38 -155)" fill="rgba(0,0,0,0.9)"/>
        <path id="rgba_0_0_0_0.9_42" data-name="rgba(0,0,0,0.9)" d="M1312.5,294l-1,2Z" transform="translate(-38 -155)" fill="rgba(0,0,0,0.9)"/>
        <path id="rgba_0_0_0_0.9_43" data-name="rgba(0,0,0,0.9)" d="M1664.5,294l-1,2Z" transform="translate(-38 -155)" fill="rgba(0,0,0,0.9)"/>
        <path id="rgba_0_0_0_0.9_44" data-name="rgba(0,0,0,0.9)" d="M890.5,297l1,2Z" transform="translate(-38 -155)" fill="rgba(0,0,0,0.9)"/>
        <path id="rgba_0_0_0_0.9_45" data-name="rgba(0,0,0,0.9)" d="M115.5,298l-1,2Z" transform="translate(-38 -155)" fill="rgba(0,0,0,0.9)"/>
        <path id="rgba_0_0_0_0.9_46" data-name="rgba(0,0,0,0.9)" d="M1148.5,298l1,2Z" transform="translate(-38 -155)" fill="rgba(0,0,0,0.9)"/>
        <path id="rgba_0_0_0_0.9_47" data-name="rgba(0,0,0,0.9)" d="M1529.5,298l1,2Z" transform="translate(-38 -155)" fill="rgba(0,0,0,0.9)"/>
        <path id="rgba_0_0_0_0.9_48" data-name="rgba(0,0,0,0.9)" d="M686.5,300l-1,2Z" transform="translate(-38 -155)" fill="rgba(0,0,0,0.9)"/>
        <path id="rgba_0_0_0_0.9_49" data-name="rgba(0,0,0,0.9)" d="M1977.5,300l1,2Z" transform="translate(-38 -155)" fill="rgba(0,0,0,0.9)"/>
        <path id="rgba_0_0_0_0.9_50" data-name="rgba(0,0,0,0.9)" d="M111.5,301l-8,9Z" transform="translate(-38 -155)" fill="rgba(0,0,0,0.9)"/>
        <path id="rgba_0_0_0_0.9_51" data-name="rgba(0,0,0,0.9)" d="M1152.5,301l7,8Z" transform="translate(-38 -155)" fill="rgba(0,0,0,0.9)"/>
        <path id="rgba_0_0_0_0.9_52" data-name="rgba(0,0,0,0.9)" d="M1306.5,302l-1,2Z" transform="translate(-38 -155)" fill="rgba(0,0,0,0.9)"/>
        <path id="rgba_0_0_0_0.9_53" data-name="rgba(0,0,0,0.9)" d="M1473.5,302l1,2Z" transform="translate(-38 -155)" fill="rgba(0,0,0,0.9)"/>
        <path id="rgba_0_0_0_0.9_54" data-name="rgba(0,0,0,0.9)" d="M723.5,303l-1,2Z" transform="translate(-38 -155)" fill="rgba(0,0,0,0.9)"/>
        <path id="rgba_0_0_0_0.9_55" data-name="rgba(0,0,0,0.9)" d="M1981.5,303l1,2Z" transform="translate(-38 -155)" fill="rgba(0,0,0,0.9)"/>
        <path id="rgba_0_0_0_0.9_56" data-name="rgba(0,0,0,0.9)" d="M1692.5,304l-1,2Z" transform="translate(-38 -155)" fill="rgba(0,0,0,0.9)"/>
        <path id="rgba_0_0_0_0.9_57" data-name="rgba(0,0,0,0.9)" d="M1869.5,304l-1,2Z" transform="translate(-38 -155)" fill="rgba(0,0,0,0.9)"/>
        <path id="rgba_0_0_0_0.9_58" data-name="rgba(0,0,0,0.9)" d="M1360.5,305l-1,2Z" transform="translate(-38 -155)" fill="rgba(0,0,0,0.9)"/>
        <path id="rgba_0_0_0_0.9_59" data-name="rgba(0,0,0,0.9)" d="M1478.5,306l5,6Z" transform="translate(-38 -155)" fill="rgba(0,0,0,0.9)"/>
        <path id="rgba_0_0_0_0.9_60" data-name="rgba(0,0,0,0.9)" d="M718.5,307l-10,11Z" transform="translate(-38 -155)" fill="rgba(0,0,0,0.9)"/>
        <path id="rgba_0_0_0_0.9_61" data-name="rgba(0,0,0,0.9)" d="M1688.5,307l-2,3Z" transform="translate(-38 -155)" fill="rgba(0,0,0,0.9)"/>
        <path id="rgba_0_0_0_0.9_62" data-name="rgba(0,0,0,0.9)" d="M1986.5,307l9,10Z" transform="translate(-38 -155)" fill="rgba(0,0,0,0.9)"/>
        <path id="rgba_0_0_0_0.9_63" data-name="rgba(0,0,0,0.9)" d="M841.5,309l4,5Z" transform="translate(-38 -155)" fill="rgba(0,0,0,0.9)"/>
        <path id="rgba_0_0_0_0.9_64" data-name="rgba(0,0,0,0.9)" d="M221.5,310l1,2Z" transform="translate(-38 -155)" fill="rgba(0,0,0,0.9)"/>
        <path id="rgba_0_0_0_0.9_65" data-name="rgba(0,0,0,0.9)" d="M1041.5,311l-1,2Z" transform="translate(-38 -155)" fill="rgba(0,0,0,0.9)"/>
        <path id="rgba_0_0_0_0.9_66" data-name="rgba(0,0,0,0.9)" d="M1350.5,315l-1,2Z" transform="translate(-38 -155)" fill="rgba(0,0,0,0.9)"/>
        <path id="rgba_0_0_0_0.9_67" data-name="rgba(0,0,0,0.9)" d="M1487.5,315l2,3Z" transform="translate(-38 -155)" fill="rgba(0,0,0,0.9)"/>
        <path id="rgba_0_0_0_0.9_68" data-name="rgba(0,0,0,0.9)" d="M98.5,316l-1,2Z" transform="translate(-38 -155)" fill="rgba(0,0,0,0.9)"/>
        <path id="rgba_0_0_0_0.9_69" data-name="rgba(0,0,0,0.9)" d="M1856.5,317l-1,2Z" transform="translate(-38 -155)" fill="rgba(0,0,0,0.9)"/>
        <path id="rgba_0_0_0_0.9_70" data-name="rgba(0,0,0,0.9)" d="M849.5,318l1,2Z" transform="translate(-38 -155)" fill="rgba(0,0,0,0.9)"/>
        <path id="rgba_0_0_0_0.9_71" data-name="rgba(0,0,0,0.9)" d="M1491.5,320l1,2Z" transform="translate(-38 -155)" fill="rgba(0,0,0,0.9)"/>
        <path id="rgba_0_0_0_0.9_72" data-name="rgba(0,0,0,0.9)" d="M703.5,324l-1,2Z" transform="translate(-38 -155)" fill="rgba(0,0,0,0.9)"/>
        <path id="rgba_0_0_0_0.9_73" data-name="rgba(0,0,0,0.9)" d="M1492.5,453l-1,2Z" transform="translate(-38 -155)" fill="rgba(0,0,0,0.9)"/>
        <path id="rgba_0_0_0_0.9_74" data-name="rgba(0,0,0,0.9)" d="M706.5,455l1,2Z" transform="translate(-38 -155)" fill="rgba(0,0,0,0.9)"/>
        <path id="rgba_0_0_0_0.9_75" data-name="rgba(0,0,0,0.9)" d="M849.5,456l-1,2Z" transform="translate(-38 -155)" fill="rgba(0,0,0,0.9)"/>
        <path id="rgba_0_0_0_0.9_76" data-name="rgba(0,0,0,0.9)" d="M1997.5,456l-1,2Z" transform="translate(-38 -155)" fill="rgba(0,0,0,0.9)"/>
        <path id="rgba_0_0_0_0.9_77" data-name="rgba(0,0,0,0.9)" d="M1856.5,457l1,2Z" transform="translate(-38 -155)" fill="rgba(0,0,0,0.9)"/>
        <path id="rgba_0_0_0_0.9_78" data-name="rgba(0,0,0,0.9)" d="M1487.5,459l-8,9Z" transform="translate(-38 -155)" fill="rgba(0,0,0,0.9)"/>
        <path id="rgba_0_0_0_0.9_79" data-name="rgba(0,0,0,0.9)" d="M1350.5,460l1,2Z" transform="translate(-38 -155)" fill="rgba(0,0,0,0.9)"/>
        <path id="rgba_0_0_0_0.9_80" data-name="rgba(0,0,0,0.9)" d="M1357.5,467l3,4Z" transform="translate(-38 -155)" fill="rgba(0,0,0,0.9)"/>
        <path id="rgba_0_0_0_0.9_81" data-name="rgba(0,0,0,0.9)" d="M1985.5,468l-2,3Z" transform="translate(-38 -155)" fill="rgba(0,0,0,0.9)"/>
        <path id="rgba_0_0_0_0.9_82" data-name="rgba(0,0,0,0.9)" d="M720.5,469l1,2Z" transform="translate(-38 -155)" fill="rgba(0,0,0,0.9)"/>
        <path id="rgba_0_0_0_0.9_83" data-name="rgba(0,0,0,0.9)" d="M836.5,469l-1,2Z" transform="translate(-38 -155)" fill="rgba(0,0,0,0.9)"/>
        <path id="rgba_0_0_0_0.9_84" data-name="rgba(0,0,0,0.9)" d="M1868.5,469l1,2Z" transform="translate(-38 -155)" fill="rgba(0,0,0,0.9)"/>
        <path id="rgba_0_0_0_0.9_85" data-name="rgba(0,0,0,0.9)" d="M2139.5,471l-1,2Z" transform="translate(-38 -155)" fill="rgba(0,0,0,0.9)"/>
        <path id="rgba_0_0_0_0.9_86" data-name="rgba(0,0,0,0.9)" d="M832.5,472l-1,2Z" transform="translate(-38 -155)" fill="rgba(0,0,0,0.9)"/>
        <path id="rgba_0_0_0_0.9_87" data-name="rgba(0,0,0,0.9)" d="M1363.5,472l1,2Z" transform="translate(-38 -155)" fill="rgba(0,0,0,0.9)"/>
        <path id="rgba_0_0_0_0.9_88" data-name="rgba(0,0,0,0.9)" d="M685.5,474l1,2Z" transform="translate(-38 -155)" fill="rgba(0,0,0,0.9)"/>
        <path id="rgba_0_0_0_0.9_89" data-name="rgba(0,0,0,0.9)" d="M1875.5,474l1,2Z" transform="translate(-38 -155)" fill="rgba(0,0,0,0.9)"/>
        <path id="rgba_0_0_0_0.9_90" data-name="rgba(0,0,0,0.9)" d="M890.5,477l-1,2Z" transform="translate(-38 -155)" fill="rgba(0,0,0,0.9)"/>
        <path id="rgba_0_0_0_0.9_91" data-name="rgba(0,0,0,0.9)" d="M1815.5,478l1,2Z" transform="translate(-38 -155)" fill="rgba(0,0,0,0.9)"/>
        <path id="rgba_0_0_0_0.9_92" data-name="rgba(0,0,0,0.9)" d="M1526.5,480l-2,3Z" transform="translate(-38 -155)" fill="rgba(0,0,0,0.9)"/>
        <path id="rgba_0_0_0_0.9_93" data-name="rgba(0,0,0,0.9)" d="M887.5,481l-1,2Z" transform="translate(-38 -155)" fill="rgba(0,0,0,0.9)"/>
        <path id="rgba_0_0_0_0.9_94" data-name="rgba(0,0,0,0.9)" d="M2014.5,481l-1,2Z" transform="translate(-38 -155)" fill="rgba(0,0,0,0.9)"/>
        <path id="rgba_0_0_0_0.9_95" data-name="rgba(0,0,0,0.9)" d="M1312.5,482l2,3Z" transform="translate(-38 -155)" fill="rgba(0,0,0,0.9)"/>
        <path id="rgba_0_0_0_0.9_96" data-name="rgba(0,0,0,0.9)" d="M1819.5,483l1,2Z" transform="translate(-38 -155)" fill="rgba(0,0,0,0.9)"/>
        <path id="rgba_0_0_0_0.9_97" data-name="rgba(0,0,0,0.9)" d="M693.5,485l1,2Z" transform="translate(-38 -155)" fill="rgba(0,0,0,0.9)"/>
        <path id="rgba_0_0_0_0.9_98" data-name="rgba(0,0,0,0.9)" d="M2011.5,485l-1,2Z" transform="translate(-38 -155)" fill="rgba(0,0,0,0.9)"/>
        <path id="rgba_0_0_0_0.9_99" data-name="rgba(0,0,0,0.9)" d="M882.5,487l-2,3Z" transform="translate(-38 -155)" fill="rgba(0,0,0,0.9)"/>
        <path id="rgba_0_0_0_0.9_100" data-name="rgba(0,0,0,0.9)" d="M1823.5,488l9,10Z" transform="translate(-38 -155)" fill="rgba(0,0,0,0.9)"/>
        <path id="rgba_0_0_0_0.9_101" data-name="rgba(0,0,0,0.9)" d="M2007.5,490l-10,11Z" transform="translate(-38 -155)" fill="rgba(0,0,0,0.9)"/>
        <path id="rgba_0_0_0_0.9_102" data-name="rgba(0,0,0,0.9)" d="M700.5,493l3,4Z" transform="translate(-38 -155)" fill="rgba(0,0,0,0.9)"/>
        <path id="rgba_0_0_0_0.9_103" data-name="rgba(0,0,0,0.9)" d="M1512.5,494l-2,3Z" transform="translate(-38 -155)" fill="rgba(0,0,0,0.9)"/>
        <path id="rgba_0_0_0_0.9_104" data-name="rgba(0,0,0,0.9)" d="M874.5,495l-3,4Z" transform="translate(-38 -155)" fill="rgba(0,0,0,0.9)"/>
        <path id="rgba_0_0_0_0.9_105" data-name="rgba(0,0,0,0.9)" d="M1326.5,496l2,3Z" transform="translate(-38 -155)" fill="rgba(0,0,0,0.9)"/>
        <path id="rgba_0_0_0_0.9_106" data-name="rgba(0,0,0,0.9)" d="M1506.5,499l-1,2Z" transform="translate(-38 -155)" fill="rgba(0,0,0,0.9)"/>
        <path id="rgba_0_0_0_0.9_107" data-name="rgba(0,0,0,0.9)" d="M709.5,501l1,2Z" transform="translate(-38 -155)" fill="rgba(0,0,0,0.9)"/>
        <path id="rgba_0_0_0_0.9_108" data-name="rgba(0,0,0,0.9)" d="M867.5,501l-1,2Z" transform="translate(-38 -155)" fill="rgba(0,0,0,0.9)"/>
        <path id="rgba_0_0_0_0.9_109" data-name="rgba(0,0,0,0.9)" d="M1332.5,501l1,2Z" transform="translate(-38 -155)" fill="rgba(0,0,0,0.9)"/>
        <path id="rgba_0_0_0_0.9_110" data-name="rgba(0,0,0,0.9)" d="M1837.5,501l1,2Z" transform="translate(-38 -155)" fill="rgba(0,0,0,0.9)"/>
        <path id="rgba_0_0_0_0.9_111" data-name="rgba(0,0,0,0.9)" d="M1502.5,502l-1,2Z" transform="translate(-38 -155)" fill="rgba(0,0,0,0.9)"/>
        <path id="rgba_0_0_0_0.9_112" data-name="rgba(0,0,0,0.9)" d="M1841.5,504l1,2Z" transform="translate(-38 -155)" fill="rgba(0,0,0,0.9)"/>
        <path id="rgba_0_0_0_0.9_113" data-name="rgba(0,0,0,0.9)" d="M1989.5,506l-1,2Z" transform="translate(-38 -155)" fill="rgba(0,0,0,0.9)"/>
        <path id="rgba_0_0_0_0.9_114" data-name="rgba(0,0,0,0.9)" d="M2138.5,521l1,2Z" transform="translate(-38 -155)" fill="rgba(0,0,0,0.9)"/>
        <path id="rgba_0_0_0_1_" data-name="rgba(0,0,0,1)" d="M39,155H83.5l.5.5v135c4.333-7,8.833-12.833,14.5-17.5q16-15,40-22a84.545,84.545,0,0,1,19-4c10.75-1,22.75-.5,34,0s30,8,30,8,23.633,13.033,32.5,22.5c8.933,9.4,29.5,41.375,30,86S284,525,284,525H239.5l-.5-.5s.529-163.2,0-169-.105-6.238-1.855-13.238A110.372,110.372,0,0,0,232,327.5,63.888,63.888,0,0,0,211.5,300c-4.918-4.135-12.831-10.644-22.846-13-16.542-3.893-36.154-2-36.154-2a45.868,45.868,0,0,0-12,2,72.441,72.441,0,0,0-12.708,5.816c-7.841,5.377-8.868,5.047-17.14,12.283S95.315,320.781,91.7,327.5s-5.928,9.3-7.7,18.884S84,525,84,525H39.5l-.5-.5Z" transform="translate(-38 -155)"/>
        <path id="rgba_0_0_0_1_2" data-name="rgba(0,0,0,1)" d="M978,155h44.5l.5.5-.033,135.661c6.133-8.867,11.666-16.028,18.533-21.161q15.3-12.7,37-19a114.516,114.516,0,0,1,19-4c8.99-.9,12.135-1.093,18.566-.937a124.7,124.7,0,0,1,15.374.937c5.412.868,10.6,1.9,11.06,2a148.76,148.76,0,0,1,16,5c15.667,6.333,26.326,13.047,36.814,24.651S1207.243,292.7,1211.22,301s4.818,14.224,6.78,21.5a142.834,142.834,0,0,1,3.823,18.044c1.25,7.75.8,5.858,1.177,12.956s0,171.5,0,171.5h-43.5l-.5-.5s-.843-158.534-1-165-.047-7.819-1-14-5-17-5-17a67.852,67.852,0,0,0-19.5-27.5c-6.8-5.867-15.827-10.862-23.475-13s-10.4-2.333-17.131-3a88.214,88.214,0,0,0-19.395,0c-8.75.75-8.25.75-16,3a95.109,95.109,0,0,0-15,6,73.82,73.82,0,0,0-21.5,18.5,102.387,102.387,0,0,0-12,23c-4.25,12.25-4.576,15.783-5,26s0,163.5,0,163.5l-45-.007Z" transform="translate(-38 -155)"/>
        <path id="rgba_0_0_0_1_3" data-name="rgba(0,0,0,1)" d="M1751.95,247l.05,46s-18.954-.628-26.5,0a67.833,67.833,0,0,0-17.441,3.4c-4.646,1.63-20.926,9.562-29.059,20.1,0,0-2.53,3.5-4.944,7.122a69.557,69.557,0,0,0-7.92,19.361c-1.557,7.261-1.632,10.095-2.365,17.561S1663,525,1663,525h-44.5l-.5-.5V251h45l0,46.04c6.933-12.4,14.1-23.107,23.5-30.04a82.957,82.957,0,0,1,30-16,76.2,76.2,0,0,1,14.512-3.2A180.083,180.083,0,0,1,1751.95,247Z" transform="translate(-38 -155)"/>
        <path id="rgba_0_0_0_1_4" data-name="rgba(0,0,0,1)" d="M781.931,246.143c8.463-.1,11.569.107,25.569,1.857a117.6,117.6,0,0,1,25,6q28.6,10.4,47.5,30.5,19,19.5,29,48a111.659,111.659,0,0,1,6,23c1.389,8.641,3.359,20.593,3,33s-.25,9.25-1,17-.193,3.477-2,14-8,28-8,28q-11.3,28.2-31.5,47.5a123.317,123.317,0,0,1-68,33c-14.5,2-16.75,2-31,1s-14.612-1.041-26.083-4.524S739.742,521.877,725.5,513,705,497.25,695,487.5s-9.5-13.5-9.5-13.5L685,655l-45-.009V251h45l.069,51.69c6.467-9.867,12.231-18.557,19.431-24.69,9.733-8.933,19.75-14.75,34-22s23.421-7.951,23.421-7.951A173.363,173.363,0,0,1,781.931,246.143Zm-17.641,37.875C751.545,286,730.333,296.333,719,307a92.245,92.245,0,0,0-27,38l-4,13a76.758,76.758,0,0,0-3,17c-.75,10.25-1.25,11.5,0,24s2,15.25,5,26a68.331,68.331,0,0,0,7,17s10.671,16.262,16,22,7.847,7.727,13.68,11.306S734,479.5,742,483s8.462,4.095,16.356,5.474,8.006,1.555,17.167,1.687,12.284.217,21.153-1.073a72.017,72.017,0,0,0,16.554-4.675S828.667,477,836,471a100.956,100.956,0,0,0,28-38l5-16s3.766-14.849,4.355-22.849.448-6.969,0-19.151-2.116-23.5-9.355-37.277-7.622-14.858-16.955-24.191A94.1,94.1,0,0,0,815.51,291.09c-11.8-4.981-13.28-5.927-22.222-7.5S777.036,282.037,764.291,284.018Z" transform="translate(-38 -155)"/>
        <path id="rgba_0_0_0_1_5" data-name="rgba(0,0,0,1)" d="M1408.5,247a214.487,214.487,0,0,1,22,0c9.75.5,9.481.63,17,2s28,8,28,8q29.8,12.7,49.5,35.5a125.715,125.715,0,0,1,23,39,123.219,123.219,0,0,1,7,25c2.5,14.5,2.25,12.066,3,23.131a132.95,132.95,0,0,1,0,21.13A101.293,101.293,0,0,1,1555.918,418c-1.489,7.8-1.625,6.052-3.875,13.96A151.316,151.316,0,0,1,1546,448.5q-11.7,27.3-32.5,45.5-21,19.5-52,29a102.93,102.93,0,0,1-23,5,190.3,190.3,0,0,1-28.919,1.162c-9.593-.12-7.421-.182-12.791-.905a99.207,99.207,0,0,1-13.817-2.654,143.256,143.256,0,0,1-15.929-4.706,65.019,65.019,0,0,1-9.544-3.9,124.879,124.879,0,0,1-42.5-31.5q-17.9-20.1-27-49s-3.153-11.786-4.773-21.663a182.828,182.828,0,0,1-2.447-28.475A121.934,121.934,0,0,1,1282,367.5a157.576,157.576,0,0,1,4.578-22.473c2.778-10.672,4.308-16.888,10.512-28.434A133.016,133.016,0,0,1,1327.5,279c10.467-8.867,19.2-15.49,31.782-20.832A116.763,116.763,0,0,1,1382.5,251a89.07,89.07,0,0,1,9.7-2.116C1398.736,247.742,1400.5,247.25,1408.5,247Zm-2.5,39c-9.062,1.086-13.081,1.87-23,6s-22,13-22,13c-10.667,8.667-13.183,10.956-19.456,19.917A65.392,65.392,0,0,0,1331,348.49a120.772,120.772,0,0,0-3.32,20.093c-.5,6.232-.793,10.021-.794,15.377s.265,10.339.794,16.3.672,8.336,1.229,12.7A89.45,89.45,0,0,0,1331,424c1.3,5.763,10.333,27,19,37q12,14,31,22a105.787,105.787,0,0,0,13.21,4.353c5.216,1.129,9.678,2.767,15.928,3.017A104.1,104.1,0,0,0,1426,490c5.967-.551,21-4,21-4a93.134,93.134,0,0,0,33-18q16-13,24-34a92.342,92.342,0,0,0,5-16c1.75-8.5,1.772-7.063,2.978-18.608s.745-14.477,0-24.3-1.755-10.294-2.978-16.883S1504,342,1504,342a103.392,103.392,0,0,0-14-24q-14-18-37-27s-10.388-4.275-20-5S1415.062,284.914,1406,286Z" transform="translate(-38 -155)"/>
        <path id="rgba_0_0_0_1_6" data-name="rgba(0,0,0,1)" d="M1907.5,247s8.255-.524,15.031-.431a87.884,87.884,0,0,1,15.223,1.346A118.635,118.635,0,0,1,1964.5,255c13.758,5.343,33.033,17.633,44.5,31.5l10.5,14.5.5-50h44.919L2065,525h-45V474.5c-8.933,13.067-16.767,22.233-26.5,29.5-11.667,9.333-34.112,18.475-41.685,20.794s-7.783,2.655-17.5,3.982-11.5,1.368-20.788.978-12.094-.917-20.9-2.426-10.653-2.389-20.9-5.889A77.655,77.655,0,0,1,1855.5,514a121.57,121.57,0,0,1-34.5-28.5c-12-14-17.185-22.593-21.773-35.033s-8.053-25.044-9.227-32.967-2.194-11.693-2.6-20.26-.25-6.306,0-15.806,1.428-20.291,1.428-20.291,1.94-10.088,4.69-20.088A154.948,154.948,0,0,1,1800,322.5q12.7-28.8,35.5-47.5a110.591,110.591,0,0,1,32-19l19-6,11-2Zm6.5,39c-12.25,1.5-16.7,3.438-23,6a75.724,75.724,0,0,0-12,6c-3.661,2.112-10.25,5.25-18,13s-7.519,8.085-12.519,16.085A77.526,77.526,0,0,0,1841,343a109.486,109.486,0,0,0-4,11.722c-1.75,6.346-2.576,7.075-3.7,14.213a85.26,85.26,0,0,0-1.193,18.691c.265,7.025,1.856,19.021,1.856,19.021l3.977,16.57c4,14.667,9.39,24.116,18.057,34.782a73.834,73.834,0,0,0,26,21s8.931,4.475,13,6,16.176,4.746,23,5a173.566,173.566,0,0,0,25-1c8.179-1,8.141-1.009,14.407-3.051S1967.246,482,1974,478a93.2,93.2,0,0,0,18-14,78.1,78.1,0,0,0,9-11l9-15,5-13s4.286-15.529,5-26a157.309,157.309,0,0,0-1-29,118.806,118.806,0,0,0-3.344-17.161C2012.685,343.58,2005.333,327,1996,317a78.683,78.683,0,0,0-36-26,74.662,74.662,0,0,0-20-5C1928.5,284.75,1926.25,284.5,1914,286Z" transform="translate(-38 -155)"/>
        <path id="rgba_0_0_0_1_7" data-name="rgba(0,0,0,1)" d="M327,251h49.442L462.5,473l86-222,45.5.5L428.5,654l-45.5-.5,54-132Z" transform="translate(-38 -155)"/>
        <path id="rgba_0_0_0_1_8" data-name="rgba(0,0,0,1)" d="M2156.5,466.019c15.214-.407,30.407,12.031,30.5,31.481s-14.818,30.588-30.5,30.5-29.345-13.547-29.447-31.392A30.3,30.3,0,0,1,2156.5,466.019Z" transform="translate(-38 -155)"/>
      </g>
    </g>
  </g>
  <g id="Component_240_1" data-name="Component 240 – 1">
    <path id="Path_1340" data-name="Path 1340" d="M290.734-169s95.1,142.617,167.208,270.82c45.326,81.038,71.162,129,78.129,208.332,3.253,91.5-14.084,165.611-53.382,225.646-48.708,72.214-128.5,91.449-170.316,87.9-81.038-6.868-149.714-76.917-190.919-162.075-89.87-222.836-5.532-338.709,36.127-420.488C234.6-87.064,290.734-169,290.734-169Z" transform="matrix(0.643, 0.766, -0.766, 0.643, 435.92, 122.151)" fill="#42d56b" opacity="0.6"/>
    <path id="Path_1341" data-name="Path 1341" d="M290.734-169s95.1,142.617,167.208,270.82c45.326,81.038,71.162,129,78.129,208.332,3.253,91.5-14.084,165.611-53.382,225.646-48.708,72.214-128.5,91.449-170.316,87.9-81.038-6.868-149.714-76.917-190.919-162.075-89.87-222.836-5.532-338.709,36.127-420.488C234.6-87.064,290.734-169,290.734-169Z" transform="translate(241.397 105.566) rotate(30)" fill="#829ffc" opacity="0.6"/>
    <path id="Path_1342" data-name="Path 1342" d="M290.734-169s95.1,142.617,167.208,270.82c45.326,81.038,71.162,129,78.129,208.332,3.253,91.5-14.084,165.611-53.382,225.646-48.708,72.214-128.5,91.449-170.316,87.9-81.038-6.868-149.714-76.917-190.919-162.075-89.87-222.836-5.532-338.709,36.127-420.488C234.6-87.064,290.734-169,290.734-169Z" transform="matrix(0.985, 0.174, -0.174, 0.985, 54.429, 159.386)" fill="#b778c4" opacity="0.6"/>
  </g>
</svg>
